# xmcd
#
# Track frame offsets: 
#        150
#        19540
#        30842
#        44350
#        59262
#        78135
#        104305
#        119110
#        133887
#        144252
#        160162
#
# Disc length: 2333 seconds
#
# Revision: 2
# Processed by: cddbd v1.5.1PL2 Copyright (c) Steve Scherf et al.
# Submitted via: ExactAudioCopy v0.95b4
#
DISCID=87091b0b
DTITLE=Tish Hinojosa - Cada Nino - Every Child
DYEAR=1996
DGENRE=Country
TTITLE0=Cada Nino
TTITLE1=Escala Musical
TTITLE2=Siempre Abuelita
TTITLE3=Baile Vegetal
TTITLE4=Nina Violina
TTITLE5=Magnolia
TTITLE6=Simplemente por amor
TTITLE7=Hasta Los Muertos Salen a Bailar
TTITLE8=Quien
TTITLE9=Las Fronterizas
TTITLE10=Senora Santa Ana
EXTD=
EXTT0=
EXTT1=
EXTT2=
EXTT3=
EXTT4=
EXTT5=
EXTT6=
EXTT7=
EXTT8=
EXTT9=
EXTT10=
PLAYORDER=
